<mxfile host="65bd71144e">
    <diagram id="7-6UzgJ52HKAVXeZKGqz" name="software">
        <mxGraphModel dx="566" dy="1002" grid="1" gridSize="10" guides="1" tooltips="1" connect="1" arrows="1" fold="1" page="1" pageScale="1" pageWidth="827" pageHeight="1169" background="#ffffff" math="0" shadow="0">
            <root>
                <mxCell id="0"/>
                <mxCell id="1" parent="0"/>
                <mxCell id="23" value="" style="endArrow=none;html=1;fontColor=#000000;strokeWidth=4;strokeColor=#000000;" parent="1" edge="1">
                    <mxGeometry width="50" height="50" relative="1" as="geometry">
                        <mxPoint x="630" y="280" as="sourcePoint"/>
                        <mxPoint x="630" y="120" as="targetPoint"/>
                    </mxGeometry>
                </mxCell>
                <mxCell id="29" value="experiment network" style="text;html=1;strokeColor=none;fillColor=none;align=center;verticalAlign=middle;whiteSpace=wrap;rounded=0;strokeWidth=1;fontColor=#000000;rotation=90;" parent="1" vertex="1">
                    <mxGeometry x="570" y="200" width="140" height="10" as="geometry"/>
                </mxCell>
                <mxCell id="45" value="" style="endArrow=none;html=1;fontColor=#000000;strokeWidth=4;strokeColor=#000000;" parent="1" edge="1">
                    <mxGeometry width="50" height="50" relative="1" as="geometry">
                        <mxPoint x="420" y="280" as="sourcePoint"/>
                        <mxPoint x="420" y="120" as="targetPoint"/>
                    </mxGeometry>
                </mxCell>
                <mxCell id="46" style="edgeStyle=none;html=1;strokeColor=#000000;strokeWidth=1;fontColor=#000000;endArrow=none;endFill=0;" parent="1" edge="1">
                    <mxGeometry relative="1" as="geometry">
                        <mxPoint x="630" y="224.93" as="targetPoint"/>
                        <mxPoint x="609" y="224.93" as="sourcePoint"/>
                    </mxGeometry>
                </mxCell>
                <mxCell id="49" style="edgeStyle=none;html=1;strokeColor=#000000;strokeWidth=1;fontColor=#000000;endArrow=none;endFill=0;" parent="1" edge="1">
                    <mxGeometry relative="1" as="geometry">
                        <mxPoint x="439" y="225.96999999999997" as="targetPoint"/>
                        <mxPoint x="420" y="226" as="sourcePoint"/>
                    </mxGeometry>
                </mxCell>
                <mxCell id="53" value="Internet" style="ellipse;shape=cloud;whiteSpace=wrap;html=1;" parent="1" vertex="1">
                    <mxGeometry x="640" y="60" width="110" height="60" as="geometry"/>
                </mxCell>
                <mxCell id="54" style="edgeStyle=none;html=1;strokeColor=#000000;strokeWidth=1;fontColor=#000000;endArrow=none;endFill=0;entryX=0.508;entryY=0.959;entryDx=0;entryDy=0;entryPerimeter=0;rounded=0;" parent="1" target="53" edge="1">
                    <mxGeometry relative="1" as="geometry">
                        <mxPoint x="640" y="234.9699999999999" as="targetPoint"/>
                        <mxPoint x="630" y="140" as="sourcePoint"/>
                        <Array as="points">
                            <mxPoint x="696" y="140"/>
                        </Array>
                    </mxGeometry>
                </mxCell>
                <mxCell id="55" style="edgeStyle=none;html=1;strokeColor=#000000;strokeWidth=1;fontColor=#000000;endArrow=none;endFill=0;entryX=0.07;entryY=0.4;entryDx=0;entryDy=0;entryPerimeter=0;rounded=0;" parent="1" target="53" edge="1">
                    <mxGeometry relative="1" as="geometry">
                        <mxPoint x="705.8799999999999" y="127.54000000000002" as="targetPoint"/>
                        <mxPoint x="420" y="125" as="sourcePoint"/>
                        <Array as="points">
                            <mxPoint x="400" y="125"/>
                            <mxPoint x="400" y="84"/>
                        </Array>
                    </mxGeometry>
                </mxCell>
                <mxCell id="57" style="edgeStyle=none;html=1;strokeColor=#000000;strokeWidth=1;fontColor=#000000;endArrow=none;endFill=0;" parent="1" edge="1">
                    <mxGeometry relative="1" as="geometry">
                        <mxPoint x="630" y="264.93" as="targetPoint"/>
                        <mxPoint x="609" y="264.93" as="sourcePoint"/>
                    </mxGeometry>
                </mxCell>
                <mxCell id="58" style="edgeStyle=none;html=1;strokeColor=#000000;strokeWidth=1;fontColor=#000000;endArrow=none;endFill=0;" parent="1" edge="1">
                    <mxGeometry relative="1" as="geometry">
                        <mxPoint x="439" y="134.99999999999997" as="targetPoint"/>
                        <mxPoint x="420" y="135.03" as="sourcePoint"/>
                    </mxGeometry>
                </mxCell>
                <mxCell id="59" style="edgeStyle=none;html=1;strokeColor=#000000;strokeWidth=1;fontColor=#000000;endArrow=none;endFill=0;" parent="1" edge="1">
                    <mxGeometry relative="1" as="geometry">
                        <mxPoint x="439" y="174" as="targetPoint"/>
                        <mxPoint x="420" y="174.02999999999997" as="sourcePoint"/>
                    </mxGeometry>
                </mxCell>
                <mxCell id="61" style="edgeStyle=none;html=1;strokeColor=#000000;strokeWidth=1;fontColor=#000000;endArrow=none;endFill=0;" parent="1" edge="1">
                    <mxGeometry relative="1" as="geometry">
                        <mxPoint x="439" y="265.97" as="targetPoint"/>
                        <mxPoint x="420" y="266" as="sourcePoint"/>
                    </mxGeometry>
                </mxCell>
                <mxCell id="62" value="" style="endArrow=none;html=1;fontColor=#000000;strokeWidth=2;strokeColor=#808080;" parent="1" edge="1">
                    <mxGeometry width="50" height="50" relative="1" as="geometry">
                        <mxPoint x="380" y="280" as="sourcePoint"/>
                        <mxPoint x="380" y="120" as="targetPoint"/>
                    </mxGeometry>
                </mxCell>
                <mxCell id="63" value="BMC" style="text;html=1;strokeColor=none;fillColor=none;align=center;verticalAlign=middle;whiteSpace=wrap;rounded=0;strokeWidth=1;fontColor=#000000;rotation=90;" parent="1" vertex="1">
                    <mxGeometry x="299" y="200" width="140" height="10" as="geometry"/>
                </mxCell>
                <mxCell id="65" style="edgeStyle=none;html=1;strokeColor=#808080;strokeWidth=1;fontColor=#000000;endArrow=none;endFill=0;jumpStyle=sharp;rounded=0;" parent="1" edge="1">
                    <mxGeometry relative="1" as="geometry">
                        <mxPoint x="438.9999999999999" y="183.87999999999988" as="targetPoint"/>
                        <mxPoint x="380" y="183.88" as="sourcePoint"/>
                    </mxGeometry>
                </mxCell>
                <mxCell id="68" style="edgeStyle=none;html=1;strokeColor=#808080;strokeWidth=1;fontColor=#000000;endArrow=none;endFill=0;jumpStyle=sharp;rounded=0;" parent="1" edge="1">
                    <mxGeometry relative="1" as="geometry">
                        <mxPoint x="438.9999999999998" y="146.87999999999988" as="targetPoint"/>
                        <mxPoint x="380" y="146.88" as="sourcePoint"/>
                    </mxGeometry>
                </mxCell>
                <mxCell id="69" style="edgeStyle=none;html=1;strokeColor=#808080;strokeWidth=1;fontColor=#000000;endArrow=none;endFill=0;jumpStyle=sharp;rounded=0;" parent="1" edge="1">
                    <mxGeometry relative="1" as="geometry">
                        <mxPoint x="438.9999999999998" y="236.87999999999988" as="targetPoint"/>
                        <mxPoint x="380" y="236.88" as="sourcePoint"/>
                    </mxGeometry>
                </mxCell>
                <mxCell id="70" style="edgeStyle=none;html=1;strokeColor=#808080;strokeWidth=1;fontColor=#000000;endArrow=none;endFill=0;jumpStyle=sharp;rounded=0;" parent="1" edge="1">
                    <mxGeometry relative="1" as="geometry">
                        <mxPoint x="438.9999999999998" y="276.8799999999999" as="targetPoint"/>
                        <mxPoint x="380" y="276.88" as="sourcePoint"/>
                    </mxGeometry>
                </mxCell>
                <mxCell id="17" value="&lt;div style=&quot;&quot;&gt;&lt;span style=&quot;background-color: initial;&quot;&gt;&lt;b&gt;mgmt1&lt;/b&gt;&lt;/span&gt;&lt;/div&gt;" style="rounded=0;whiteSpace=wrap;html=1;strokeColor=#000000;strokeWidth=1;fontColor=#000000;fillColor=none;align=left;verticalAlign=top;" parent="1" vertex="1">
                    <mxGeometry x="439" y="120" width="170" height="30" as="geometry"/>
                </mxCell>
                <mxCell id="18" value="&lt;div style=&quot;&quot;&gt;&lt;span style=&quot;background-color: initial;&quot;&gt;&lt;b&gt;mgmt2&lt;/b&gt;&lt;/span&gt;&lt;/div&gt;" style="rounded=0;whiteSpace=wrap;html=1;strokeColor=#000000;strokeWidth=1;fontColor=#000000;fillColor=none;align=left;verticalAlign=top;" parent="1" vertex="1">
                    <mxGeometry x="439" y="160" width="170" height="30" as="geometry"/>
                </mxCell>
                <mxCell id="37" value="&lt;div style=&quot;&quot;&gt;&lt;b&gt;compute1&lt;/b&gt;&lt;/div&gt;" style="rounded=0;whiteSpace=wrap;html=1;strokeColor=#000000;strokeWidth=1;fontColor=#000000;fillColor=none;align=left;verticalAlign=top;" parent="1" vertex="1">
                    <mxGeometry x="439" y="210" width="170" height="30" as="geometry"/>
                </mxCell>
                <mxCell id="38" value="&lt;div style=&quot;&quot;&gt;&lt;b&gt;compute2&lt;/b&gt;&lt;/div&gt;" style="rounded=0;whiteSpace=wrap;html=1;strokeColor=#000000;strokeWidth=1;fontColor=#000000;fillColor=none;align=left;verticalAlign=top;" parent="1" vertex="1">
                    <mxGeometry x="439" y="250" width="170" height="30" as="geometry"/>
                </mxCell>
                <mxCell id="42" value="management network" style="text;html=1;strokeColor=none;fillColor=none;align=center;verticalAlign=middle;whiteSpace=wrap;rounded=0;strokeWidth=1;fontColor=#000000;rotation=90;" parent="1" vertex="1">
                    <mxGeometry x="340" y="190" width="140" height="10" as="geometry"/>
                </mxCell>
            </root>
        </mxGraphModel>
    </diagram>
    <diagram name="hardware" id="KQIhTE4C0VUWvqWvYbnQ">
        <mxGraphModel dx="955" dy="1002" grid="1" gridSize="10" guides="1" tooltips="1" connect="1" arrows="1" fold="1" page="1" pageScale="1" pageWidth="827" pageHeight="1169" background="#ffffff" math="0" shadow="0">
            <root>
                <mxCell id="Rm4euJqX05T1VmEwgTSM-0"/>
                <mxCell id="Rm4euJqX05T1VmEwgTSM-1" parent="Rm4euJqX05T1VmEwgTSM-0"/>
                <mxCell id="Rm4euJqX05T1VmEwgTSM-3" value="experiment network" style="text;html=1;strokeColor=none;fillColor=none;align=center;verticalAlign=middle;whiteSpace=wrap;rounded=0;strokeWidth=1;fontColor=#000000;rotation=90;" parent="Rm4euJqX05T1VmEwgTSM-1" vertex="1">
                    <mxGeometry x="590" y="230" width="140" height="10" as="geometry"/>
                </mxCell>
                <mxCell id="Rm4euJqX05T1VmEwgTSM-4" value="" style="endArrow=none;html=1;fontColor=#000000;strokeWidth=4;strokeColor=#000000;" parent="Rm4euJqX05T1VmEwgTSM-1" edge="1">
                    <mxGeometry width="50" height="50" relative="1" as="geometry">
                        <mxPoint x="420" y="330" as="sourcePoint"/>
                        <mxPoint x="420" y="120" as="targetPoint"/>
                    </mxGeometry>
                </mxCell>
                <mxCell id="Rm4euJqX05T1VmEwgTSM-5" style="edgeStyle=none;html=1;strokeColor=#000000;strokeWidth=1;fontColor=#000000;endArrow=none;endFill=0;" parent="Rm4euJqX05T1VmEwgTSM-1" edge="1">
                    <mxGeometry relative="1" as="geometry">
                        <mxPoint x="650" y="225" as="targetPoint"/>
                        <mxPoint x="609" y="224.93" as="sourcePoint"/>
                    </mxGeometry>
                </mxCell>
                <mxCell id="Rm4euJqX05T1VmEwgTSM-6" style="edgeStyle=none;html=1;strokeColor=#000000;strokeWidth=1;fontColor=#000000;endArrow=none;endFill=0;" parent="Rm4euJqX05T1VmEwgTSM-1" edge="1">
                    <mxGeometry relative="1" as="geometry">
                        <mxPoint x="439" y="225.96999999999997" as="targetPoint"/>
                        <mxPoint x="420" y="226" as="sourcePoint"/>
                    </mxGeometry>
                </mxCell>
                <mxCell id="Rm4euJqX05T1VmEwgTSM-7" value="Internet" style="ellipse;shape=cloud;whiteSpace=wrap;html=1;" parent="Rm4euJqX05T1VmEwgTSM-1" vertex="1">
                    <mxGeometry x="640" y="60" width="110" height="60" as="geometry"/>
                </mxCell>
                <mxCell id="Rm4euJqX05T1VmEwgTSM-8" style="edgeStyle=none;html=1;strokeColor=#000000;strokeWidth=1;fontColor=#000000;endArrow=none;endFill=0;entryX=0.508;entryY=0.959;entryDx=0;entryDy=0;entryPerimeter=0;rounded=0;" parent="Rm4euJqX05T1VmEwgTSM-1" target="Rm4euJqX05T1VmEwgTSM-7" edge="1">
                    <mxGeometry relative="1" as="geometry">
                        <mxPoint x="640" y="234.9699999999999" as="targetPoint"/>
                        <mxPoint x="650" y="140" as="sourcePoint"/>
                        <Array as="points">
                            <mxPoint x="696" y="140"/>
                        </Array>
                    </mxGeometry>
                </mxCell>
                <mxCell id="Rm4euJqX05T1VmEwgTSM-9" style="edgeStyle=none;html=1;strokeColor=#000000;strokeWidth=1;fontColor=#000000;endArrow=none;endFill=0;entryX=0.07;entryY=0.4;entryDx=0;entryDy=0;entryPerimeter=0;rounded=0;" parent="Rm4euJqX05T1VmEwgTSM-1" target="Rm4euJqX05T1VmEwgTSM-7" edge="1">
                    <mxGeometry relative="1" as="geometry">
                        <mxPoint x="705.8799999999999" y="127.54000000000002" as="targetPoint"/>
                        <mxPoint x="420" y="125" as="sourcePoint"/>
                        <Array as="points">
                            <mxPoint x="400" y="125"/>
                            <mxPoint x="400" y="84"/>
                        </Array>
                    </mxGeometry>
                </mxCell>
                <mxCell id="Rm4euJqX05T1VmEwgTSM-10" style="edgeStyle=none;html=1;strokeColor=#000000;strokeWidth=1;fontColor=#000000;endArrow=none;endFill=0;" parent="Rm4euJqX05T1VmEwgTSM-1" edge="1">
                    <mxGeometry relative="1" as="geometry">
                        <mxPoint x="650" y="265" as="targetPoint"/>
                        <mxPoint x="609" y="264.93" as="sourcePoint"/>
                    </mxGeometry>
                </mxCell>
                <mxCell id="Rm4euJqX05T1VmEwgTSM-11" style="edgeStyle=none;html=1;strokeColor=#000000;strokeWidth=1;fontColor=#000000;endArrow=none;endFill=0;" parent="Rm4euJqX05T1VmEwgTSM-1" edge="1">
                    <mxGeometry relative="1" as="geometry">
                        <mxPoint x="439" y="134.99999999999997" as="targetPoint"/>
                        <mxPoint x="420" y="135.03" as="sourcePoint"/>
                    </mxGeometry>
                </mxCell>
                <mxCell id="Rm4euJqX05T1VmEwgTSM-12" style="edgeStyle=none;html=1;strokeColor=#000000;strokeWidth=1;fontColor=#000000;endArrow=none;endFill=0;" parent="Rm4euJqX05T1VmEwgTSM-1" edge="1">
                    <mxGeometry relative="1" as="geometry">
                        <mxPoint x="439" y="174" as="targetPoint"/>
                        <mxPoint x="420" y="174.02999999999997" as="sourcePoint"/>
                    </mxGeometry>
                </mxCell>
                <mxCell id="Rm4euJqX05T1VmEwgTSM-13" style="edgeStyle=none;html=1;strokeColor=#000000;strokeWidth=1;fontColor=#000000;endArrow=none;endFill=0;" parent="Rm4euJqX05T1VmEwgTSM-1" edge="1">
                    <mxGeometry relative="1" as="geometry">
                        <mxPoint x="439" y="265.97" as="targetPoint"/>
                        <mxPoint x="420" y="266" as="sourcePoint"/>
                    </mxGeometry>
                </mxCell>
                <mxCell id="Rm4euJqX05T1VmEwgTSM-14" value="" style="endArrow=none;html=1;fontColor=#000000;strokeWidth=2;strokeColor=#808080;" parent="Rm4euJqX05T1VmEwgTSM-1" edge="1">
                    <mxGeometry width="50" height="50" relative="1" as="geometry">
                        <mxPoint x="380" y="330" as="sourcePoint"/>
                        <mxPoint x="380" y="120" as="targetPoint"/>
                    </mxGeometry>
                </mxCell>
                <mxCell id="Rm4euJqX05T1VmEwgTSM-15" value="BMC" style="text;html=1;strokeColor=none;fillColor=none;align=center;verticalAlign=middle;whiteSpace=wrap;rounded=0;strokeWidth=1;fontColor=#000000;rotation=90;" parent="Rm4euJqX05T1VmEwgTSM-1" vertex="1">
                    <mxGeometry x="299" y="230" width="140" height="10" as="geometry"/>
                </mxCell>
                <mxCell id="Rm4euJqX05T1VmEwgTSM-16" style="edgeStyle=none;html=1;strokeColor=#808080;strokeWidth=1;fontColor=#000000;endArrow=none;endFill=0;jumpStyle=sharp;rounded=0;" parent="Rm4euJqX05T1VmEwgTSM-1" edge="1">
                    <mxGeometry relative="1" as="geometry">
                        <mxPoint x="438.9999999999999" y="183.87999999999988" as="targetPoint"/>
                        <mxPoint x="380" y="183.88" as="sourcePoint"/>
                    </mxGeometry>
                </mxCell>
                <mxCell id="Rm4euJqX05T1VmEwgTSM-17" style="edgeStyle=none;html=1;strokeColor=#808080;strokeWidth=1;fontColor=#000000;endArrow=none;endFill=0;jumpStyle=sharp;rounded=0;" parent="Rm4euJqX05T1VmEwgTSM-1" edge="1">
                    <mxGeometry relative="1" as="geometry">
                        <mxPoint x="438.9999999999998" y="146.87999999999988" as="targetPoint"/>
                        <mxPoint x="380" y="146.88" as="sourcePoint"/>
                    </mxGeometry>
                </mxCell>
                <mxCell id="Rm4euJqX05T1VmEwgTSM-18" style="edgeStyle=none;html=1;strokeColor=#808080;strokeWidth=1;fontColor=#000000;endArrow=none;endFill=0;jumpStyle=sharp;rounded=0;" parent="Rm4euJqX05T1VmEwgTSM-1" edge="1">
                    <mxGeometry relative="1" as="geometry">
                        <mxPoint x="438.9999999999998" y="236.87999999999988" as="targetPoint"/>
                        <mxPoint x="380" y="236.88" as="sourcePoint"/>
                    </mxGeometry>
                </mxCell>
                <mxCell id="Rm4euJqX05T1VmEwgTSM-19" style="edgeStyle=none;html=1;strokeColor=#808080;strokeWidth=1;fontColor=#000000;endArrow=none;endFill=0;jumpStyle=sharp;rounded=0;" parent="Rm4euJqX05T1VmEwgTSM-1" edge="1">
                    <mxGeometry relative="1" as="geometry">
                        <mxPoint x="438.9999999999998" y="276.8799999999999" as="targetPoint"/>
                        <mxPoint x="380" y="276.88" as="sourcePoint"/>
                    </mxGeometry>
                </mxCell>
                <mxCell id="Rm4euJqX05T1VmEwgTSM-20" value="&lt;div style=&quot;&quot;&gt;&lt;span style=&quot;background-color: initial;&quot;&gt;&lt;b&gt;mgmt1&lt;/b&gt;&lt;/span&gt;&lt;/div&gt;" style="rounded=0;whiteSpace=wrap;html=1;strokeColor=#000000;strokeWidth=1;fontColor=#000000;fillColor=none;align=left;verticalAlign=top;" parent="Rm4euJqX05T1VmEwgTSM-1" vertex="1">
                    <mxGeometry x="439" y="120" width="170" height="30" as="geometry"/>
                </mxCell>
                <mxCell id="Rm4euJqX05T1VmEwgTSM-21" value="&lt;div style=&quot;&quot;&gt;&lt;span style=&quot;background-color: initial;&quot;&gt;&lt;b&gt;mgmt2&lt;/b&gt;&lt;/span&gt;&lt;/div&gt;" style="rounded=0;whiteSpace=wrap;html=1;strokeColor=#000000;strokeWidth=1;fontColor=#000000;fillColor=none;align=left;verticalAlign=top;" parent="Rm4euJqX05T1VmEwgTSM-1" vertex="1">
                    <mxGeometry x="439" y="160" width="170" height="30" as="geometry"/>
                </mxCell>
                <mxCell id="Rm4euJqX05T1VmEwgTSM-24" value="management network" style="text;html=1;strokeColor=none;fillColor=none;align=center;verticalAlign=middle;whiteSpace=wrap;rounded=0;strokeWidth=1;fontColor=#000000;rotation=90;" parent="Rm4euJqX05T1VmEwgTSM-1" vertex="1">
                    <mxGeometry x="340" y="230" width="140" height="10" as="geometry"/>
                </mxCell>
                <mxCell id="p-R-8RG0SioVSNoHdFrC-5" style="edgeStyle=none;html=1;strokeColor=#4D9900;strokeWidth=1;fontColor=#000000;endArrow=none;endFill=0;rounded=0;jumpStyle=sharp;" parent="Rm4euJqX05T1VmEwgTSM-1" edge="1">
                    <mxGeometry relative="1" as="geometry">
                        <mxPoint x="609" y="310" as="targetPoint"/>
                        <mxPoint x="649" y="310" as="sourcePoint"/>
                        <Array as="points"/>
                    </mxGeometry>
                </mxCell>
                <mxCell id="p-R-8RG0SioVSNoHdFrC-7" style="edgeStyle=none;html=1;strokeColor=#808080;strokeWidth=1;fontColor=#000000;endArrow=none;endFill=0;jumpStyle=sharp;rounded=0;entryX=-0.001;entryY=0.335;entryDx=0;entryDy=0;entryPerimeter=0;" parent="Rm4euJqX05T1VmEwgTSM-1" target="2Rz3nOJQRL4X24s4Mv0--1" edge="1">
                    <mxGeometry relative="1" as="geometry">
                        <mxPoint x="740" y="360" as="targetPoint"/>
                        <mxPoint x="381" y="303" as="sourcePoint"/>
                        <Array as="points"/>
                    </mxGeometry>
                </mxCell>
                <mxCell id="2Rz3nOJQRL4X24s4Mv0--4" style="edgeStyle=none;html=1;strokeColor=#000000;strokeWidth=1;fontColor=#000000;endArrow=none;endFill=0;" parent="Rm4euJqX05T1VmEwgTSM-1" edge="1">
                    <mxGeometry relative="1" as="geometry">
                        <mxPoint x="439" y="309.97" as="targetPoint"/>
                        <mxPoint x="420" y="310" as="sourcePoint"/>
                    </mxGeometry>
                </mxCell>
                <mxCell id="Rm4euJqX05T1VmEwgTSM-22" value="&lt;div style=&quot;&quot;&gt;&lt;b&gt;compute1&lt;/b&gt;&lt;/div&gt;" style="rounded=0;whiteSpace=wrap;html=1;strokeColor=#000000;strokeWidth=1;fontColor=#000000;fillColor=none;align=left;verticalAlign=top;" parent="Rm4euJqX05T1VmEwgTSM-1" vertex="1">
                    <mxGeometry x="439" y="210" width="170" height="30" as="geometry"/>
                </mxCell>
                <mxCell id="Rm4euJqX05T1VmEwgTSM-23" value="&lt;div style=&quot;&quot;&gt;&lt;b&gt;compute2&lt;/b&gt;&lt;/div&gt;" style="rounded=0;whiteSpace=wrap;html=1;strokeColor=#000000;strokeWidth=1;fontColor=#000000;fillColor=none;align=left;verticalAlign=top;" parent="Rm4euJqX05T1VmEwgTSM-1" vertex="1">
                    <mxGeometry x="439" y="250" width="170" height="30" as="geometry"/>
                </mxCell>
                <mxCell id="2Rz3nOJQRL4X24s4Mv0--1" value="&lt;div style=&quot;&quot;&gt;&lt;b&gt;compute with hardware accelerator&lt;/b&gt;&lt;/div&gt;" style="rounded=0;whiteSpace=wrap;html=1;strokeColor=#4c9900;strokeWidth=1;fontColor=#000000;fillColor=none;align=left;verticalAlign=top;" parent="Rm4euJqX05T1VmEwgTSM-1" vertex="1">
                    <mxGeometry x="439" y="290" width="170" height="40" as="geometry"/>
                </mxCell>
                <mxCell id="Rm4euJqX05T1VmEwgTSM-2" value="" style="endArrow=none;html=1;fontColor=#000000;strokeWidth=4;strokeColor=#000000;" parent="Rm4euJqX05T1VmEwgTSM-1" edge="1">
                    <mxGeometry width="50" height="50" relative="1" as="geometry">
                        <mxPoint x="650" y="330" as="sourcePoint"/>
                        <mxPoint x="650" y="120" as="targetPoint"/>
                    </mxGeometry>
                </mxCell>
                <mxCell id="IE0MLWA2Iotv-lWUBrmY-0" style="edgeStyle=none;html=1;strokeColor=#000000;strokeWidth=1;fontColor=#000000;endArrow=none;endFill=0;" parent="Rm4euJqX05T1VmEwgTSM-1" edge="1">
                    <mxGeometry relative="1" as="geometry">
                        <mxPoint x="650" y="300.07" as="targetPoint"/>
                        <mxPoint x="609.0000000000001" y="300.00000000000006" as="sourcePoint"/>
                    </mxGeometry>
                </mxCell>
            </root>
        </mxGraphModel>
    </diagram>
    <diagram name="radio" id="gEuJFovo4aEEOIMJ4xvG">
        <mxGraphModel dx="566" dy="1002" grid="1" gridSize="10" guides="1" tooltips="1" connect="1" arrows="1" fold="1" page="1" pageScale="1" pageWidth="827" pageHeight="1169" background="#ffffff" math="0" shadow="0">
            <root>
                <mxCell id="soByDfLFKzaCw9y5_75x-0"/>
                <mxCell id="soByDfLFKzaCw9y5_75x-1" parent="soByDfLFKzaCw9y5_75x-0"/>
                <mxCell id="OubrT0dTyxGFD663TjOM-24" value="&lt;div style=&quot;&quot;&gt;&lt;br&gt;&lt;/div&gt;" style="rounded=0;whiteSpace=wrap;html=1;strokeColor=#000000;strokeWidth=1;fontColor=#000000;fillColor=none;align=left;verticalAlign=top;" parent="soByDfLFKzaCw9y5_75x-1" vertex="1">
                    <mxGeometry x="540" y="380" width="190" height="70" as="geometry"/>
                </mxCell>
                <mxCell id="soByDfLFKzaCw9y5_75x-2" value="experiment network" style="text;html=1;strokeColor=none;fillColor=none;align=center;verticalAlign=middle;whiteSpace=wrap;rounded=0;strokeWidth=1;fontColor=#000000;rotation=90;" parent="soByDfLFKzaCw9y5_75x-1" vertex="1">
                    <mxGeometry x="704" y="471.75" width="140" height="10" as="geometry"/>
                </mxCell>
                <mxCell id="soByDfLFKzaCw9y5_75x-4" style="edgeStyle=none;html=1;strokeColor=#000000;strokeWidth=1;fontColor=#000000;endArrow=none;endFill=0;exitX=1.001;exitY=0.335;exitDx=0;exitDy=0;exitPerimeter=0;" parent="soByDfLFKzaCw9y5_75x-1" edge="1">
                    <mxGeometry relative="1" as="geometry">
                        <mxPoint x="760" y="345" as="targetPoint"/>
                        <mxPoint x="710.17" y="345.05" as="sourcePoint"/>
                    </mxGeometry>
                </mxCell>
                <mxCell id="soByDfLFKzaCw9y5_75x-13" value="" style="endArrow=none;html=1;fontColor=#000000;strokeWidth=2;strokeColor=#808080;" parent="soByDfLFKzaCw9y5_75x-1" edge="1">
                    <mxGeometry width="50" height="50" relative="1" as="geometry">
                        <mxPoint x="340" y="640" as="sourcePoint"/>
                        <mxPoint x="340" y="320" as="targetPoint"/>
                    </mxGeometry>
                </mxCell>
                <mxCell id="soByDfLFKzaCw9y5_75x-14" value="BMC" style="text;html=1;strokeColor=none;fillColor=none;align=center;verticalAlign=middle;whiteSpace=wrap;rounded=0;strokeWidth=1;fontColor=#000000;rotation=90;" parent="soByDfLFKzaCw9y5_75x-1" vertex="1">
                    <mxGeometry x="260.86" y="469.13" width="140" height="10" as="geometry"/>
                </mxCell>
                <mxCell id="soByDfLFKzaCw9y5_75x-21" value="management network" style="text;html=1;strokeColor=none;fillColor=none;align=center;verticalAlign=middle;whiteSpace=wrap;rounded=0;strokeWidth=1;fontColor=#000000;rotation=90;" parent="soByDfLFKzaCw9y5_75x-1" vertex="1">
                    <mxGeometry x="290" y="451.75" width="140" height="10" as="geometry"/>
                </mxCell>
                <mxCell id="soByDfLFKzaCw9y5_75x-23" style="edgeStyle=none;html=1;strokeColor=#808080;strokeWidth=1;fontColor=#000000;endArrow=none;endFill=0;jumpStyle=sharp;rounded=0;entryX=-0.001;entryY=0.286;entryDx=0;entryDy=0;entryPerimeter=0;" parent="soByDfLFKzaCw9y5_75x-1" edge="1">
                    <mxGeometry relative="1" as="geometry">
                        <mxPoint x="539.81" y="446.02" as="targetPoint"/>
                        <mxPoint x="340" y="446" as="sourcePoint"/>
                        <Array as="points"/>
                    </mxGeometry>
                </mxCell>
                <mxCell id="soByDfLFKzaCw9y5_75x-25" value="&lt;div style=&quot;&quot;&gt;&lt;b&gt;compute&lt;/b&gt;&lt;/div&gt;" style="rounded=0;whiteSpace=wrap;html=1;strokeColor=#000000;strokeWidth=1;fontColor=#000000;fillColor=none;align=left;verticalAlign=top;" parent="soByDfLFKzaCw9y5_75x-1" vertex="1">
                    <mxGeometry x="540" y="330" width="170" height="30" as="geometry"/>
                </mxCell>
                <mxCell id="OubrT0dTyxGFD663TjOM-15" style="edgeStyle=none;html=1;strokeColor=#0000FF;endArrow=none;endFill=0;" parent="soByDfLFKzaCw9y5_75x-1" source="OubrT0dTyxGFD663TjOM-4" target="OubrT0dTyxGFD663TjOM-6" edge="1">
                    <mxGeometry relative="1" as="geometry">
                        <mxPoint x="368.28" y="519.0041818832797" as="targetPoint"/>
                    </mxGeometry>
                </mxCell>
                <mxCell id="OubrT0dTyxGFD663TjOM-4" value="" style="sketch=0;outlineConnect=0;fontColor=#232F3E;gradientColor=none;fillColor=#0000FF;strokeColor=none;dashed=0;verticalLabelPosition=bottom;verticalAlign=top;align=center;html=1;fontSize=12;fontStyle=0;aspect=fixed;pointerEvents=1;shape=mxgraph.aws4.iot_thing_relay;" parent="soByDfLFKzaCw9y5_75x-1" vertex="1">
                    <mxGeometry x="403.86" y="510" width="18" height="18" as="geometry"/>
                </mxCell>
                <mxCell id="OubrT0dTyxGFD663TjOM-14" style="edgeStyle=none;html=1;strokeColor=#0000FF;endArrow=none;endFill=0;" parent="soByDfLFKzaCw9y5_75x-1" source="OubrT0dTyxGFD663TjOM-5" target="OubrT0dTyxGFD663TjOM-6" edge="1">
                    <mxGeometry relative="1" as="geometry"/>
                </mxCell>
                <mxCell id="OubrT0dTyxGFD663TjOM-5" value="" style="strokeColor=#666666;html=1;labelPosition=right;align=left;spacingLeft=15;shadow=0;dashed=0;outlineConnect=0;shape=mxgraph.rack.dell.power_strip;fillColor=#0000FF;" parent="soByDfLFKzaCw9y5_75x-1" vertex="1">
                    <mxGeometry x="388" y="416.75" width="50" height="15" as="geometry"/>
                </mxCell>
                <mxCell id="OubrT0dTyxGFD663TjOM-6" value="" style="aspect=fixed;html=1;points=[];align=center;image;fontSize=12;image=img/lib/azure2/general/Power.svg;strokeColor=#000000;fillColor=#000000;" parent="soByDfLFKzaCw9y5_75x-1" vertex="1">
                    <mxGeometry x="403.86" y="460" width="18.28" height="28.25" as="geometry"/>
                </mxCell>
                <mxCell id="OubrT0dTyxGFD663TjOM-10" value="" style="endArrow=none;html=1;strokeColor=#0000FF;fillColor=#0050ef;" parent="soByDfLFKzaCw9y5_75x-1" source="OubrT0dTyxGFD663TjOM-5" edge="1">
                    <mxGeometry width="50" height="50" relative="1" as="geometry">
                        <mxPoint x="500" y="424" as="sourcePoint"/>
                        <mxPoint x="540" y="424.25" as="targetPoint"/>
                    </mxGeometry>
                </mxCell>
                <mxCell id="OubrT0dTyxGFD663TjOM-11" value="" style="endArrow=none;html=1;strokeColor=#0000FF;" parent="soByDfLFKzaCw9y5_75x-1" source="OubrT0dTyxGFD663TjOM-4" edge="1">
                    <mxGeometry width="50" height="50" relative="1" as="geometry">
                        <mxPoint x="500" y="518.78" as="sourcePoint"/>
                        <mxPoint x="540.0000000000001" y="519.03" as="targetPoint"/>
                    </mxGeometry>
                </mxCell>
                <mxCell id="OubrT0dTyxGFD663TjOM-12" value="" style="sketch=0;outlineConnect=0;fontColor=#232F3E;gradientColor=none;strokeColor=#0000FF;fillColor=#ffffff;dashed=0;verticalLabelPosition=bottom;verticalAlign=top;align=center;html=1;fontSize=12;fontStyle=0;aspect=fixed;shape=mxgraph.aws4.resourceIcon;resIcon=mxgraph.aws4.sensor;" parent="soByDfLFKzaCw9y5_75x-1" vertex="1">
                    <mxGeometry x="480" y="498" width="30" height="30" as="geometry"/>
                </mxCell>
                <mxCell id="OubrT0dTyxGFD663TjOM-13" value="" style="sketch=0;outlineConnect=0;fontColor=#232F3E;gradientColor=none;strokeColor=#0000FF;fillColor=#ffffff;dashed=0;verticalLabelPosition=bottom;verticalAlign=top;align=center;html=1;fontSize=12;fontStyle=0;aspect=fixed;shape=mxgraph.aws4.resourceIcon;resIcon=mxgraph.aws4.sensor;" parent="soByDfLFKzaCw9y5_75x-1" vertex="1">
                    <mxGeometry x="480" y="400.12" width="30" height="30" as="geometry"/>
                </mxCell>
                <mxCell id="OubrT0dTyxGFD663TjOM-20" value="" style="group" parent="soByDfLFKzaCw9y5_75x-1" vertex="1" connectable="0">
                    <mxGeometry x="540" y="470" width="190" height="70" as="geometry"/>
                </mxCell>
                <mxCell id="OubrT0dTyxGFD663TjOM-8" value="&lt;div style=&quot;&quot;&gt;&lt;b&gt;DC Radio Unit&lt;/b&gt;&lt;/div&gt;" style="rounded=0;whiteSpace=wrap;html=1;strokeColor=#000000;strokeWidth=1;fontColor=#000000;fillColor=none;align=left;verticalAlign=top;" parent="OubrT0dTyxGFD663TjOM-20" vertex="1">
                    <mxGeometry x="10" y="34" width="170" height="30" as="geometry"/>
                </mxCell>
                <mxCell id="OubrT0dTyxGFD663TjOM-17" value="&lt;div style=&quot;&quot;&gt;&lt;b&gt;Control board&lt;/b&gt;&lt;/div&gt;" style="rounded=0;whiteSpace=wrap;html=1;strokeColor=#000000;strokeWidth=1;fontColor=#000000;fillColor=none;align=left;verticalAlign=top;" parent="OubrT0dTyxGFD663TjOM-20" vertex="1">
                    <mxGeometry x="10" y="4" width="100" height="30" as="geometry"/>
                </mxCell>
                <mxCell id="OubrT0dTyxGFD663TjOM-18" value="&lt;div style=&quot;&quot;&gt;&lt;br&gt;&lt;/div&gt;" style="rounded=0;whiteSpace=wrap;html=1;strokeColor=#000000;strokeWidth=1;fontColor=#000000;fillColor=none;align=left;verticalAlign=top;" parent="OubrT0dTyxGFD663TjOM-20" vertex="1">
                    <mxGeometry width="190" height="70" as="geometry"/>
                </mxCell>
                <mxCell id="OubrT0dTyxGFD663TjOM-36" value="" style="verticalLabelPosition=bottom;shadow=0;dashed=0;align=center;html=1;verticalAlign=top;shape=mxgraph.electrical.radio.aerial_-_antenna_1;fillColor=#000000;strokeColor=#000000;" parent="OubrT0dTyxGFD663TjOM-20" vertex="1">
                    <mxGeometry x="140" y="8.5" width="20" height="25" as="geometry"/>
                </mxCell>
                <mxCell id="OubrT0dTyxGFD663TjOM-25" style="edgeStyle=none;html=1;strokeColor=#808080;strokeWidth=1;fontColor=#000000;endArrow=none;endFill=0;jumpStyle=sharp;rounded=0;entryX=-0.001;entryY=0.286;entryDx=0;entryDy=0;entryPerimeter=0;" parent="soByDfLFKzaCw9y5_75x-1" edge="1">
                    <mxGeometry relative="1" as="geometry">
                        <mxPoint x="539.81" y="538.02" as="targetPoint"/>
                        <mxPoint x="340" y="538" as="sourcePoint"/>
                        <Array as="points"/>
                    </mxGeometry>
                </mxCell>
                <mxCell id="OubrT0dTyxGFD663TjOM-26" style="edgeStyle=none;html=1;strokeColor=#000000;strokeWidth=1;fontColor=#000000;endArrow=none;endFill=0;jumpStyle=sharp;" parent="soByDfLFKzaCw9y5_75x-1" edge="1">
                    <mxGeometry relative="1" as="geometry">
                        <mxPoint x="485" y="410" as="targetPoint"/>
                        <mxPoint x="370" y="410" as="sourcePoint"/>
                    </mxGeometry>
                </mxCell>
                <mxCell id="OubrT0dTyxGFD663TjOM-29" style="edgeStyle=none;html=1;strokeColor=#000000;strokeWidth=1;fontColor=#000000;endArrow=none;endFill=0;jumpStyle=sharp;" parent="soByDfLFKzaCw9y5_75x-1" edge="1">
                    <mxGeometry relative="1" as="geometry">
                        <mxPoint x="400" y="520" as="targetPoint"/>
                        <mxPoint x="370" y="520" as="sourcePoint"/>
                    </mxGeometry>
                </mxCell>
                <mxCell id="OubrT0dTyxGFD663TjOM-30" style="edgeStyle=none;html=1;strokeColor=#000000;strokeWidth=1;fontColor=#000000;endArrow=none;endFill=0;jumpStyle=sharp;" parent="soByDfLFKzaCw9y5_75x-1" target="OubrT0dTyxGFD663TjOM-5" edge="1">
                    <mxGeometry relative="1" as="geometry">
                        <mxPoint x="400.0000000000001" y="424" as="targetPoint"/>
                        <mxPoint x="370" y="424" as="sourcePoint"/>
                    </mxGeometry>
                </mxCell>
                <mxCell id="OubrT0dTyxGFD663TjOM-31" style="edgeStyle=none;html=1;strokeColor=#000000;strokeWidth=1;fontColor=#000000;endArrow=none;endFill=0;jumpStyle=sharp;" parent="soByDfLFKzaCw9y5_75x-1" edge="1">
                    <mxGeometry relative="1" as="geometry">
                        <mxPoint x="484.9999999999999" y="510" as="targetPoint"/>
                        <mxPoint x="369.9999999999999" y="510" as="sourcePoint"/>
                    </mxGeometry>
                </mxCell>
                <mxCell id="OubrT0dTyxGFD663TjOM-32" value="" style="endArrow=none;html=1;fontColor=#000000;strokeWidth=4;strokeColor=#000000;" parent="soByDfLFKzaCw9y5_75x-1" edge="1">
                    <mxGeometry width="50" height="50" relative="1" as="geometry">
                        <mxPoint x="760" y="640" as="sourcePoint"/>
                        <mxPoint x="760" y="320" as="targetPoint"/>
                    </mxGeometry>
                </mxCell>
                <mxCell id="OubrT0dTyxGFD663TjOM-33" style="edgeStyle=none;html=1;strokeColor=#000000;strokeWidth=1;fontColor=#000000;endArrow=none;endFill=0;" parent="soByDfLFKzaCw9y5_75x-1" edge="1">
                    <mxGeometry relative="1" as="geometry">
                        <mxPoint x="760" y="415" as="targetPoint"/>
                        <mxPoint x="730" y="415" as="sourcePoint"/>
                    </mxGeometry>
                </mxCell>
                <mxCell id="OubrT0dTyxGFD663TjOM-34" style="edgeStyle=none;html=1;strokeColor=#000000;strokeWidth=1;fontColor=#000000;endArrow=none;endFill=0;" parent="soByDfLFKzaCw9y5_75x-1" edge="1">
                    <mxGeometry relative="1" as="geometry">
                        <mxPoint x="760" y="505" as="targetPoint"/>
                        <mxPoint x="730" y="505" as="sourcePoint"/>
                    </mxGeometry>
                </mxCell>
                <mxCell id="OubrT0dTyxGFD663TjOM-35" style="edgeStyle=none;html=1;strokeColor=#000000;strokeWidth=1;fontColor=#000000;endArrow=none;endFill=0;jumpStyle=sharp;entryX=0;entryY=0.5;entryDx=0;entryDy=0;" parent="soByDfLFKzaCw9y5_75x-1" edge="1">
                    <mxGeometry relative="1" as="geometry">
                        <mxPoint x="540" y="335" as="targetPoint"/>
                        <mxPoint x="370" y="335" as="sourcePoint"/>
                    </mxGeometry>
                </mxCell>
                <mxCell id="soByDfLFKzaCw9y5_75x-3" value="" style="endArrow=none;html=1;fontColor=#000000;strokeWidth=4;strokeColor=#000000;" parent="soByDfLFKzaCw9y5_75x-1" edge="1">
                    <mxGeometry width="50" height="50" relative="1" as="geometry">
                        <mxPoint x="370" y="640" as="sourcePoint"/>
                        <mxPoint x="370" y="320" as="targetPoint"/>
                    </mxGeometry>
                </mxCell>
                <mxCell id="soByDfLFKzaCw9y5_75x-18" style="edgeStyle=none;html=1;strokeColor=#808080;strokeWidth=1;fontColor=#000000;endArrow=none;endFill=0;jumpStyle=sharp;rounded=0;entryX=-0.002;entryY=0.659;entryDx=0;entryDy=0;entryPerimeter=0;" parent="soByDfLFKzaCw9y5_75x-1" target="soByDfLFKzaCw9y5_75x-25" edge="1">
                    <mxGeometry relative="1" as="geometry">
                        <mxPoint x="462.8599999999998" y="349.9999999999999" as="targetPoint"/>
                        <mxPoint x="340" y="350" as="sourcePoint"/>
                    </mxGeometry>
                </mxCell>
                <mxCell id="OubrT0dTyxGFD663TjOM-41" value="" style="verticalLabelPosition=bottom;shadow=0;dashed=0;align=center;html=1;verticalAlign=top;shape=mxgraph.electrical.radio.aerial_-_antenna_1;fillColor=#000000;strokeColor=#000000;" parent="soByDfLFKzaCw9y5_75x-1" vertex="1">
                    <mxGeometry x="680" y="388.5" width="20" height="25" as="geometry"/>
                </mxCell>
                <mxCell id="OubrT0dTyxGFD663TjOM-38" value="&lt;div style=&quot;&quot;&gt;&lt;b&gt;UE&lt;/b&gt;&lt;/div&gt;" style="rounded=0;whiteSpace=wrap;html=1;strokeColor=#000000;strokeWidth=1;fontColor=#000000;fillColor=none;align=left;verticalAlign=top;" parent="soByDfLFKzaCw9y5_75x-1" vertex="1">
                    <mxGeometry x="550" y="594" width="170" height="30" as="geometry"/>
                </mxCell>
                <mxCell id="OubrT0dTyxGFD663TjOM-39" value="&lt;div style=&quot;&quot;&gt;&lt;b&gt;Control board&lt;/b&gt;&lt;/div&gt;" style="rounded=0;whiteSpace=wrap;html=1;strokeColor=#000000;strokeWidth=1;fontColor=#000000;fillColor=none;align=left;verticalAlign=top;" parent="soByDfLFKzaCw9y5_75x-1" vertex="1">
                    <mxGeometry x="550" y="564" width="100" height="30" as="geometry"/>
                </mxCell>
                <mxCell id="OubrT0dTyxGFD663TjOM-40" value="&lt;div style=&quot;&quot;&gt;&lt;br&gt;&lt;/div&gt;" style="rounded=0;whiteSpace=wrap;html=1;strokeColor=#000000;strokeWidth=1;fontColor=#000000;fillColor=none;align=left;verticalAlign=top;" parent="soByDfLFKzaCw9y5_75x-1" vertex="1">
                    <mxGeometry x="540" y="560" width="190" height="70" as="geometry"/>
                </mxCell>
                <mxCell id="OubrT0dTyxGFD663TjOM-42" value="" style="verticalLabelPosition=bottom;shadow=0;dashed=0;align=center;html=1;verticalAlign=top;shape=mxgraph.electrical.radio.aerial_-_antenna_1;fillColor=#000000;strokeColor=#000000;" parent="soByDfLFKzaCw9y5_75x-1" vertex="1">
                    <mxGeometry x="670" y="568.5" width="20" height="25" as="geometry"/>
                </mxCell>
                <mxCell id="OubrT0dTyxGFD663TjOM-43" style="edgeStyle=none;html=1;strokeColor=#000000;strokeWidth=1;fontColor=#000000;endArrow=none;endFill=0;jumpStyle=sharp;entryX=0;entryY=0.5;entryDx=0;entryDy=0;" parent="soByDfLFKzaCw9y5_75x-1" edge="1">
                    <mxGeometry relative="1" as="geometry">
                        <mxPoint x="540" y="595" as="targetPoint"/>
                        <mxPoint x="370" y="595" as="sourcePoint"/>
                    </mxGeometry>
                </mxCell>
                <mxCell id="OubrT0dTyxGFD663TjOM-44" value="" style="sketch=0;outlineConnect=0;fontColor=#232F3E;gradientColor=none;strokeColor=#0000FF;fillColor=#ffffff;dashed=0;verticalLabelPosition=bottom;verticalAlign=top;align=center;html=1;fontSize=12;fontStyle=0;aspect=fixed;shape=mxgraph.aws4.resourceIcon;resIcon=mxgraph.aws4.sensor;" parent="soByDfLFKzaCw9y5_75x-1" vertex="1">
                    <mxGeometry x="350" y="670" width="30" height="30" as="geometry"/>
                </mxCell>
                <mxCell id="OubrT0dTyxGFD663TjOM-45" value="&lt;br&gt;&lt;br&gt;" style="strokeColor=#666666;html=1;labelPosition=right;align=left;spacingLeft=15;shadow=0;dashed=0;outlineConnect=0;shape=mxgraph.rack.dell.power_strip;fillColor=#0000FF;" parent="soByDfLFKzaCw9y5_75x-1" vertex="1">
                    <mxGeometry x="412.14" y="677.5" width="50" height="15" as="geometry"/>
                </mxCell>
                <mxCell id="OubrT0dTyxGFD663TjOM-46" value="" style="sketch=0;outlineConnect=0;fontColor=#232F3E;gradientColor=none;fillColor=#0000FF;strokeColor=none;dashed=0;verticalLabelPosition=bottom;verticalAlign=top;align=center;html=1;fontSize=12;fontStyle=0;aspect=fixed;pointerEvents=1;shape=mxgraph.aws4.iot_thing_relay;" parent="soByDfLFKzaCw9y5_75x-1" vertex="1">
                    <mxGeometry x="490" y="674.5" width="18" height="18" as="geometry"/>
                </mxCell>
                <mxCell id="OubrT0dTyxGFD663TjOM-47" value="AC PDU" style="text;html=1;strokeColor=none;fillColor=none;align=center;verticalAlign=middle;whiteSpace=wrap;rounded=0;strokeWidth=1;fontColor=#000000;rotation=0;" parent="soByDfLFKzaCw9y5_75x-1" vertex="1">
                    <mxGeometry x="368" y="700" width="140" height="10" as="geometry"/>
                </mxCell>
                <mxCell id="OubrT0dTyxGFD663TjOM-51" value="DC Relay" style="text;html=1;strokeColor=none;fillColor=none;align=center;verticalAlign=middle;whiteSpace=wrap;rounded=0;strokeWidth=1;fontColor=#000000;rotation=0;" parent="soByDfLFKzaCw9y5_75x-1" vertex="1">
                    <mxGeometry x="428" y="700" width="140" height="10" as="geometry"/>
                </mxCell>
                <mxCell id="OubrT0dTyxGFD663TjOM-52" value="Power meter" style="text;html=1;strokeColor=none;fillColor=none;align=center;verticalAlign=middle;whiteSpace=wrap;rounded=0;strokeWidth=1;fontColor=#000000;rotation=0;" parent="soByDfLFKzaCw9y5_75x-1" vertex="1">
                    <mxGeometry x="294" y="700" width="140" height="10" as="geometry"/>
                </mxCell>
                <mxCell id="OubrT0dTyxGFD663TjOM-22" value="&lt;div style=&quot;&quot;&gt;&lt;b&gt;AC Radio Unit&lt;/b&gt;&lt;/div&gt;" style="rounded=0;whiteSpace=wrap;html=1;strokeColor=#000000;strokeWidth=1;fontColor=#000000;fillColor=none;align=left;verticalAlign=top;" parent="soByDfLFKzaCw9y5_75x-1" vertex="1">
                    <mxGeometry x="550" y="414" width="170" height="30" as="geometry"/>
                </mxCell>
                <mxCell id="OubrT0dTyxGFD663TjOM-23" value="&lt;div style=&quot;&quot;&gt;&lt;b&gt;Control board&lt;/b&gt;&lt;/div&gt;" style="rounded=0;whiteSpace=wrap;html=1;strokeColor=#000000;strokeWidth=1;fontColor=#000000;fillColor=none;align=left;verticalAlign=top;" parent="soByDfLFKzaCw9y5_75x-1" vertex="1">
                    <mxGeometry x="550" y="384" width="100" height="30" as="geometry"/>
                </mxCell>
            </root>
        </mxGraphModel>
    </diagram>
</mxfile>